<?xml version="1.0" encoding="UTF-8"?>
<svg xmlns="http://www.w3.org/2000/svg" xmlns:xlink="http://www.w3.org/1999/xlink" width="52px" height="px"
     viewBox="0 0 51 31" version="1.1">
    <g id="surface1">
        <path style=" stroke:none;fill-rule:nonzero;fill:rgb(49.803922%,32.941176%,70.196078%);fill-opacity:1;"
              d="M 4.734375 0 L 46.246094 0 C 48.875 0 51 2.164062 51 4.835938 L 51 20.953125 C 51 23.625 48.875 25.785156 46.246094 25.785156 L 31.359375 25.785156 L 33.402344 30.875 L 24.417969 25.785156 L 4.753906 25.785156 C 2.128906 25.785156 0 23.625 0 20.953125 L 0 4.835938 C -0.0195312 2.183594 2.105469 0 4.734375 0 Z M 4.734375 0 "/>
        <path style=" stroke:none;fill-rule:nonzero;fill:rgb(100%,100%,100%);fill-opacity:1;"
              d="M 2.902344 4.40625 C 3.195312 4.007812 3.628906 3.796875 4.210938 3.753906 C 5.269531 3.667969 5.867188 4.175781 6.015625 5.269531 C 6.65625 9.679688 7.363281 13.410156 8.109375 16.46875 L 12.648438 7.675781 C 13.0625 6.875 13.582031 6.453125 14.203125 6.410156 C 15.117188 6.347656 15.675781 6.9375 15.902344 8.179688 C 16.421875 10.984375 17.085938 13.367188 17.871094 15.390625 C 18.410156 10.035156 19.324219 6.179688 20.609375 3.796875 C 20.921875 3.203125 21.375 2.910156 21.976562 2.867188 C 22.453125 2.824219 22.890625 2.972656 23.285156 3.289062 C 23.675781 3.605469 23.886719 4.007812 23.925781 4.492188 C 23.945312 4.871094 23.886719 5.1875 23.71875 5.503906 C 22.910156 7.019531 22.246094 9.574219 21.707031 13.113281 C 21.191406 16.550781 21.003906 19.230469 21.128906 21.148438 C 21.167969 21.675781 21.085938 22.140625 20.878906 22.539062 C 20.628906 23.003906 20.257812 23.257812 19.78125 23.300781 C 19.242188 23.339844 18.679688 23.089844 18.140625 22.519531 C 16.214844 20.515625 14.679688 17.523438 13.5625 13.535156 C 12.214844 16.234375 11.21875 18.257812 10.574219 19.609375 C 9.351562 21.992188 8.316406 23.214844 7.445312 23.277344 C 6.886719 23.320312 6.40625 22.835938 5.992188 21.824219 C 4.9375 19.0625 3.796875 13.726562 2.574219 5.820312 C 2.488281 5.269531 2.613281 4.785156 2.90625 4.40625 Z M 47.457031 7.71875 C 46.710938 6.390625 45.613281 5.585938 44.140625 5.269531 C 43.746094 5.1875 43.375 5.144531 43.019531 5.144531 C 41.03125 5.144531 39.414062 6.199219 38.148438 8.308594 C 37.070312 10.101562 36.53125 12.082031 36.53125 14.253906 C 36.53125 15.878906 36.863281 17.269531 37.527344 18.429688 C 38.273438 19.757812 39.371094 20.558594 40.84375 20.875 C 41.238281 20.957031 41.609375 21 41.964844 21 C 43.972656 21 45.589844 19.945312 46.835938 17.839844 C 47.914062 16.023438 48.453125 14.042969 48.453125 11.871094 C 48.472656 10.226562 48.121094 8.855469 47.457031 7.71875 Z M 44.84375 13.558594 C 44.554688 14.949219 44.035156 15.984375 43.269531 16.679688 C 42.667969 17.226562 42.109375 17.457031 41.589844 17.351562 C 41.09375 17.246094 40.679688 16.804688 40.367188 15.984375 C 40.117188 15.328125 39.992188 14.675781 39.992188 14.0625 C 39.992188 13.535156 40.035156 13.007812 40.140625 12.523438 C 40.324219 11.660156 40.679688 10.816406 41.238281 10.015625 C 41.921875 8.980469 42.648438 8.5625 43.394531 8.707031 C 43.890625 8.8125 44.304688 9.257812 44.617188 10.078125 C 44.867188 10.730469 44.992188 11.386719 44.992188 11.996094 C 44.992188 12.546875 44.949219 13.074219 44.84375 13.558594 Z M 34.480469 7.71875 C 33.734375 6.390625 32.613281 5.585938 31.164062 5.269531 C 30.769531 5.1875 30.394531 5.144531 30.042969 5.144531 C 28.050781 5.144531 26.4375 6.199219 25.171875 8.308594 C 24.09375 10.101562 23.554688 12.082031 23.554688 14.253906 C 23.554688 15.878906 23.886719 17.269531 24.550781 18.429688 C 25.296875 19.757812 26.394531 20.558594 27.867188 20.875 C 28.261719 20.957031 28.632812 21 28.984375 21 C 30.996094 21 32.613281 19.945312 33.859375 17.839844 C 34.933594 16.023438 35.472656 14.042969 35.472656 11.871094 C 35.472656 10.226562 35.144531 8.855469 34.480469 7.71875 Z M 31.847656 13.558594 C 31.554688 14.949219 31.039062 15.984375 30.269531 16.679688 C 29.667969 17.226562 29.109375 17.457031 28.589844 17.351562 C 28.09375 17.246094 27.679688 16.804688 27.367188 15.984375 C 27.121094 15.328125 26.996094 14.675781 26.996094 14.0625 C 26.996094 13.535156 27.035156 13.007812 27.140625 12.523438 C 27.328125 11.660156 27.679688 10.816406 28.238281 10.015625 C 28.921875 8.980469 29.648438 8.5625 30.394531 8.707031 C 30.894531 8.8125 31.308594 9.257812 31.617188 10.078125 C 31.867188 10.730469 31.992188 11.386719 31.992188 11.996094 C 32.011719 12.546875 31.949219 13.074219 31.847656 13.558594 Z M 31.847656 13.558594 "/>
    </g>
</svg>
