<?xml version="1.0" encoding="UTF-8"?>
<svg xmlns="http://www.w3.org/2000/svg" xmlns:xlink="http://www.w3.org/1999/xlink" width="52px" height="px" viewBox="0 0 52 52" version="1.1">
<g id="surface1">
<path style=" stroke:none;fill-rule:nonzero;fill:rgb(12.941176%,45.882353%,60.784314%);fill-opacity:1;" d="M 3.695312 26 C 3.695312 34.828125 8.828125 42.457031 16.265625 46.074219 L 5.628906 16.921875 C 4.390625 19.695312 3.695312 22.765625 3.695312 26 Z M 3.695312 26 "/>
<path style=" stroke:none;fill-rule:nonzero;fill:rgb(12.941176%,45.882353%,60.784314%);fill-opacity:1;" d="M 41.058594 24.875 C 41.058594 22.117188 40.066406 20.207031 39.21875 18.722656 C 38.089844 16.886719 37.027344 15.328125 37.027344 13.492188 C 37.027344 11.441406 38.582031 9.53125 40.773438 9.53125 C 40.871094 9.53125 40.964844 9.546875 41.0625 9.550781 C 37.09375 5.914062 31.808594 3.695312 26 3.695312 C 18.207031 3.695312 11.351562 7.695312 7.363281 13.75 C 7.886719 13.765625 8.382812 13.777344 8.800781 13.777344 C 11.132812 13.777344 14.746094 13.492188 14.746094 13.492188 C 15.945312 13.421875 16.089844 15.1875 14.886719 15.332031 C 14.886719 15.332031 13.679688 15.472656 12.335938 15.542969 L 20.457031 39.703125 L 25.339844 25.0625 L 21.863281 15.542969 C 20.664062 15.472656 19.523438 15.328125 19.523438 15.328125 C 18.324219 15.257812 18.464844 13.421875 19.664062 13.492188 C 19.664062 13.492188 23.347656 13.773438 25.539062 13.773438 C 27.871094 13.773438 31.484375 13.492188 31.484375 13.492188 C 32.6875 13.421875 32.828125 15.1875 31.628906 15.328125 C 31.628906 15.328125 30.417969 15.472656 29.074219 15.542969 L 37.136719 39.519531 L 39.359375 32.085938 C 40.324219 29 41.058594 26.785156 41.058594 24.875 Z M 41.058594 24.875 "/>
<path style=" stroke:none;fill-rule:nonzero;fill:rgb(12.941176%,45.882353%,60.784314%);fill-opacity:1;" d="M 26.390625 27.949219 L 19.699219 47.394531 C 21.699219 47.984375 23.8125 48.304688 26 48.304688 C 28.597656 48.304688 31.089844 47.855469 33.40625 47.039062 C 33.347656 46.945312 33.292969 46.84375 33.25 46.734375 Z M 26.390625 27.949219 "/>
<path style=" stroke:none;fill-rule:nonzero;fill:rgb(12.941176%,45.882353%,60.784314%);fill-opacity:1;" d="M 45.570312 15.296875 C 45.667969 16.007812 45.722656 16.769531 45.722656 17.59375 C 45.722656 19.855469 45.300781 22.398438 44.027344 25.582031 L 37.214844 45.277344 C 43.84375 41.414062 48.304688 34.226562 48.304688 26 C 48.304688 22.121094 47.3125 18.476562 45.570312 15.296875 Z M 45.570312 15.296875 "/>
<path style=" stroke:none;fill-rule:nonzero;fill:rgb(12.941176%,45.882353%,60.784314%);fill-opacity:1;" d="M 26 0 C 11.664062 0 0 11.664062 0 26 C 0 40.335938 11.664062 52 26 52 C 40.335938 52 52.003906 40.335938 52.003906 26 C 52 11.664062 40.335938 0 26 0 Z M 26 50.808594 C 12.320312 50.808594 1.191406 39.679688 1.191406 26 C 1.191406 12.320312 12.320312 1.191406 26 1.191406 C 39.679688 1.191406 50.808594 12.320312 50.808594 26 C 50.808594 39.679688 39.679688 50.808594 26 50.808594 Z M 26 50.808594 "/>
</g>
</svg>
